<svg xmlns="http://www.w3.org/2000/svg" viewBox="0 0 64 64" role="img" aria-labelledby="title desc">
  <title id="title">rexondex polyhedron</title>
  <desc id="desc">검은 바탕 위 흰 선으로 그린 입체적인 다면체</desc>
  <rect width="64" height="64" rx="14" fill="#171717"/>
  <g fill="none" stroke="#fff" stroke-linecap="round" stroke-linejoin="round">
    <path d="M32 9 50 19l5 19-14 16-21-2L9 36l5-18Z" stroke-width="2.2"/>
    <path d="m32 9-2 21 20-11M30 30 14 18M30 30 9 36M30 30l-10 22M30 30l11 24M30 30l25 8M50 19l-9 35M14 18 9 36M9 36l11 16" stroke-width="1.45"/>
    <path d="m14 18 36 1 5 19-46-2 23-27 9 45-21-2Z" stroke-width=".8" opacity=".58"/>
    <circle cx="30" cy="30" r="2.2" fill="#fff" stroke="none"/>
  </g>
</svg>
